<?xml version="1.0" encoding="UTF-8"?>
<!-- Generator: visioncortex VTracer -->
<svg id="svg" version="1.1" xmlns="http://www.w3.org/2000/svg" style="display: block;" viewBox="0 0 225 225"><path d="M0 0 C74.25 0 148.5 0 225 0 C225 74.25 225 148.5 225 225 C150.75 225 76.5 225 0 225 C0 150.75 0 76.5 0 0 Z " transform="translate(0,0)" style="fill: #96B863;"/><path d="M0 0 C1.06122574 0.00648056 1.06122574 0.00648056 2.14389038 0.01309204 C13.151266 0.09188377 23.71623861 0.77331395 34.4375 3.375 C35.20271973 3.55192383 35.96793945 3.72884766 36.75634766 3.91113281 C50.10870769 7.03162381 63.22506654 11.05370978 75.4375 17.375 C74.82083953 21.11922073 73.74184425 24.23521688 72.15234375 27.67578125 C71.70439453 28.65224609 71.25644531 29.62871094 70.79492188 30.63476562 C70.32634766 31.64216797 69.85777344 32.64957031 69.375 33.6875 C68.66633789 35.22760742 68.66633789 35.22760742 67.94335938 36.79882812 C66.77947675 39.326452 65.61072145 41.85170072 64.4375 44.375 C60.25043366 42.9899789 56.06864256 41.59796177 51.91015625 40.12890625 C42.87228284 36.97134452 33.80545012 34.6862582 24.42626953 32.78173828 C22.71692894 32.43214812 21.01221901 32.06005027 19.30859375 31.68359375 C9.96071905 29.73782071 0.05459397 28.58197903 -8.6875 33.09765625 C-12.5946491 35.75940157 -15.05284171 38.84602514 -16.5625 43.375 C-16.67488742 46.42153217 -16.73022976 49.44575475 -16.73950195 52.49291992 C-16.74607315 53.426604 -16.75264435 54.36028809 -16.75941467 55.32226562 C-16.77914778 58.41666748 -16.7908112 61.51102076 -16.80078125 64.60546875 C-16.80485678 65.66289087 -16.8089323 66.720313 -16.81313133 67.80977821 C-16.83399352 73.4080956 -16.84829382 79.00638847 -16.85766602 84.60473633 C-16.86872227 90.38056401 -16.90311299 96.15600557 -16.94283772 101.93169689 C-16.96901504 106.37818608 -16.97735893 110.82458349 -16.98094749 115.27114296 C-16.98581163 117.39973873 -16.99742065 119.52833045 -17.01598549 121.65685081 C-17.04039701 124.64157839 -17.03940786 127.62531006 -17.0324707 130.61010742 C-17.04528076 131.48365372 -17.05809082 132.35720001 -17.07128906 133.25721741 C-17.02207759 139.08872335 -15.84717602 143.50232707 -12.5625 148.375 C-6.0549353 154.56512252 1.51100143 153.99992869 10.00390625 153.8515625 C26.50909939 153.02953409 43.45764908 147.75817018 58.6640625 141.44140625 C61.4375 140.375 61.4375 140.375 64.4375 140.375 C68.3975 148.625 72.3575 156.875 76.4375 165.375 C69.69733529 172.11516471 59.60820157 174.47988815 50.625 177 C49.56966064 177.29994873 48.51432129 177.59989746 47.42700195 177.90893555 C22.57380712 184.88570652 -8.68048831 191.55358909 -32.5625 178.375 C-42.70530801 171.22822143 -48.95050546 161.5682332 -51.08636475 149.38739014 C-51.75771138 144.54843617 -51.71799699 139.71824087 -51.72363281 134.84082031 C-51.72859772 133.80408173 -51.73356262 132.76734314 -51.73867798 131.69918823 C-51.75323212 128.28382696 -51.76009022 124.86851213 -51.765625 121.453125 C-51.77138184 119.06809489 -51.77713951 116.68306478 -51.78289795 114.29803467 C-51.79338864 109.30155218 -51.79924399 104.30508569 -51.80273438 99.30859375 C-51.80821606 92.92567375 -51.83224561 86.54296737 -51.86070633 80.16011429 C-51.87938592 75.23398227 -51.88454114 70.30790119 -51.88607025 65.38173676 C-51.8890851 63.02955711 -51.89707386 60.67737811 -51.91025543 58.32523346 C-51.92742774 55.02557892 -51.92540835 51.72643966 -51.91894531 48.42675781 C-51.9281601 47.4674234 -51.93737488 46.50808899 -51.9468689 45.51968384 C-51.86694006 32.40571742 -47.77079607 21.07589966 -38.82421875 11.484375 C-27.71261429 1.12122058 -14.61136751 -0.16869385 0 0 Z " transform="translate(103.5625,18.625)" style="fill: #36521E;"/></svg>