<svg style="fill-rule:evenodd;clip-rule:evenodd;stroke-linejoin:round;stroke-miterlimit:2;" xml:space="preserve" xmlns:xlink="http://www.w3.org/1999/xlink" xmlns="http://www.w3.org/2000/svg" version="1.1" viewBox="0 0 157 157" height="100%" width="100%">
    <g transform="matrix(1.0003,0,0,1.0003,0.0235031,6.05)">
        <path style="fill:rgb(255,68,56);fill-rule:nonzero;" d="M147.67,79.448C136.876,93.049 125.217,108.594 101.901,108.594C81.074,108.594 73.315,90.224 72.77,75.301C77.333,84.95 86.254,92.763 100.174,92.402C126.945,91.538 145.295,67.358 145.295,45.337C145.295,18.999 125.649,0 91.538,0C67.142,0 36.918,9.283 17.055,23.964C16.84,39.076 25.259,58.723 28.282,56.564C45.501,44.183 59.155,36.214 72.398,32.217C52.794,54.079 5.759,104.839 0,113.775C0.648,121.979 10.795,144 15.76,144C17.271,144 18.567,143.136 20.078,141.625C34.258,125.693 45.818,111.408 56.099,97.639C57.543,117.819 67.466,142.489 95.208,142.489C120.036,142.489 144.648,124.57 155.874,84.198C157.169,79.232 151.124,75.346 147.67,79.448ZM119.388,46.849C119.388,59.586 106.867,65.847 95.424,65.847C89.308,65.847 84.61,64.241 80.894,62.154C87.731,51.802 94.499,41.186 101.77,29.822C114.591,31.992 119.388,39.119 119.388,46.849Z"></path>
    </g>
</svg>
